<?xml version="1.0"?>
<svg xmlns="http://www.w3.org/2000/svg" id="outline" viewBox="0 0 512 512" width="512" height="512"><path d="M448,112a31.97473,31.97473,0,0,0-26.08014,13.49225A39.90567,39.90567,0,0,0,392,112H376a56.06353,56.06353,0,0,0-56,56v28.68652l-96.40234-96.40234a41.941,41.941,0,0,0-59.31348,59.31348L287.23785,282.55127,275.42969,335.6875,94.71741,147.4458,65.21387,82.53809A45.36687,45.36687,0,0,0,24,56a7.99977,7.99977,0,0,0-8,8V192a7.99977,7.99977,0,0,0,8,8H43.79181L180.50537,398.856A131.74369,131.74369,0,0,0,226.21155,440H128v16H440V440H351.90887a131.97635,131.97635,0,0,0,56.69025-60.08057A251.08742,251.08742,0,0,0,432,274.43848V261.18469A71.88472,71.88472,0,0,0,488,288a7.99977,7.99977,0,0,0,8-8V160A48.05436,48.05436,0,0,0,448,112ZM368,224h-8a24.02687,24.02687,0,0,1-24-24V168a40.02741,40.02741,0,0,1,.80493-8H360v16a7.99877,7.99877,0,0,0,2.34326,5.65674l32,32A7.99877,7.99877,0,0,0,400,216h16v24H376v-8A7.99977,7.99977,0,0,0,368,224Zm8-96h16a24.02687,24.02687,0,0,1,24,24v48H403.31348L376,172.68652V152a7.99977,7.99977,0,0,0-8-8H344.02185A39.962,39.962,0,0,1,376,128Zm-208,1.94092a25.94129,25.94129,0,0,1,44.28418-18.34326L344.40234,243.71582a25.94129,25.94129,0,0,1-36.68652,36.68652L175.59766,148.28418A25.77164,25.77164,0,0,1,168,129.94092Zm57.19147,176.51831-55.11255,48.989L58.36218,192.95129l29.52124-29.52124ZM32,73.11963A29.34167,29.34167,0,0,1,50.64844,89.15918l27.77441,61.104L44.68652,184H32ZM289.1377,440a115.802,115.802,0,0,1-95.44776-50.2085l-14.47583-21.05566,57.06629-50.72559L274.229,357.54a7.97653,7.97653,0,0,0,2.42218,1.71558l-.00372.008,96.527,44.55091A116.25305,116.25305,0,0,1,289.1377,440ZM416,274.43848a234.98161,234.98161,0,0,1-21.8999,98.71484,114.80413,114.80413,0,0,1-10.41077,17.89233l-94.48059-43.60644,11.54163-51.9375A41.93943,41.93943,0,0,0,368,262.05908,42.54091,42.54091,0,0,0,367.56476,256H416Zm64-3.0083A56.08767,56.08767,0,0,1,432,216V144a16.01833,16.01833,0,0,1,16-16,32.036,32.036,0,0,1,32,32Z"/><rect x="96" y="440" width="16" height="16"/><rect x="456" y="440" width="16" height="16"/></svg>
